#N canvas 500 77 571 472 10;
#X obj 41 265 show~ 434;
#X msg 73 220 interval \$1;
#X msg 233 220 width \$1;
#X obj 76 199 hsl 136 16 1 48000 1 0 empty empty empty -2 -8 0 10 #fcfcfc #000000 #000000 0 1;
#X obj 236 199 hsl 136 16 96 800 0 0 empty empty empty -2 -8 0 10 #fcfcfc #000000 #000000 0 1;
#X obj 41 63 osc~ 100;
#X obj 101 63 osc~ 200;
#X obj 161 63 osc~ 300;
#X obj 221 63 osc~ 400;
#X obj 281 63 osc~ 500;
#X obj 56 42 osc~ 0.1;
#X obj 116 42 osc~ 0.2;
#X obj 176 42 osc~ 0.3;
#X obj 236 42 osc~ 0.4;
#X obj 296 42 osc~ 0.5;
#X obj 41 144 snake~ in 5;
#X obj 41 84 *~;
#X obj 101 84 *~;
#X obj 161 84 *~;
#X obj 221 84 *~;
#X obj 281 84 *~;
#X listbox 41 410 46 0 0 0 - - - 0;
#X obj 389 220 bng 16 250 50 0 empty empty empty 0 -8 0 10 #fcfcfc #000000 #000000;
#X text 409 220 <-- bang to output;
#X text 406 41 CREATION ARGS:;
#X text 406 61 -scale <max range>;
#X text 406 81 -width <graph width>;
#X connect 0 0 21 0;
#X connect 1 0 0 0;
#X connect 2 0 0 0;
#X connect 3 0 1 0;
#X connect 4 0 2 0;
#X connect 5 0 16 0;
#X connect 6 0 17 0;
#X connect 7 0 18 0;
#X connect 8 0 19 0;
#X connect 9 0 20 0;
#X connect 10 0 16 1;
#X connect 11 0 17 1;
#X connect 12 0 18 1;
#X connect 13 0 19 1;
#X connect 14 0 20 1;
#X connect 15 0 0 0;
#X connect 16 0 15 0;
#X connect 17 0 15 1;
#X connect 18 0 15 2;
#X connect 19 0 15 3;
#X connect 20 0 15 4;
#X connect 22 0 0 0;
